<?xml version="1.0" encoding="utf-8"?>
<svg xmlns="http://www.w3.org/2000/svg" viewBox="0 170.6458 500 328.7084" width="500px" height="328.708px" xmlns:bx="https://boxy-svg.com" preserveAspectRatio="none"><defs><style bx:fonts="Roboto">@import url(https://fonts.googleapis.com/css2?family=Roboto%3Aital%2Cwght%400%2C100..900%3B1%2C100..900&amp;display=swap);</style></defs><g id="object-1" transform="matrix(1.9215300083160398, 0, 0, 1.9215440750122068, -37.793701171875014, 54.46739196777344)"><path d="M 162.765 231.486 C 158.428 231.209 149.385 230.656 142.372 226.596 C 135.359 222.535 132.129 219.992 131.488 214.786 C 129.352 212.703 119.775 203.636 102.756 187.584 C 101.847 192.587 100.255 197.05 97.981 200.972 C 90.477 214.531 93.973 215.299 94.911 215.554 C 95.849 215.81 101.648 217.175 105.912 216.237 C 110.175 215.299 106.338 219.477 102.074 220.074 C 99.459 220.245 96.986 220.415 94.655 220.586 C 94.257 222.121 92.324 222.831 88.856 222.718 C 85.389 222.604 82.788 222.448 81.055 222.25 C 81.493 222.892 80.617 223.199 78.428 223.169 C 76.239 223.14 71.218 223.111 63.367 223.082 C 61.732 223.053 60.871 222.235 60.784 220.63 C 58.624 220.543 51.75 220.528 40.163 220.586 C 40.163 221.696 37.212 222.086 31.311 221.756 C 31.661 221.756 28.633 221.744 22.227 221.719 C 20.043 221.706 19.257 220.932 19.87 219.399 C 20.79 217.1 23.32 212.443 24.814 211.638 C 26.309 210.833 26.309 211.926 26.884 209.281 C 27.267 207.518 27.622 206.828 27.948 207.212 C 27.948 207.212 27.938 203.375 28.057 201.736 C 28.152 200.433 28.735 199.835 28.79 198.858 C 28.844 197.887 28.801 195.661 28.79 195.337 C 28.778 195.014 29.098 193.267 29.097 192.574 C 29.097 191.8 28.542 190.071 28.599 190.089 C 28.657 190.106 28.482 187.356 29.097 186.226 C 29.713 185.096 29.415 178.676 29.405 176.465 C 29.395 174.254 29.328 172.158 29.328 172.004 C 29.328 171.85 29.251 170.403 29.251 170.326 C 29.251 170.249 29.184 168.88 29.097 168.446 C 28.972 167.816 28.56 166.975 28.599 166.466 C 28.642 165.893 29.021 164.77 29.097 164.619 C 29.174 164.467 29.414 163.729 29.405 162.786 C 29.396 161.817 29.118 161.383 29.097 160.772 C 29.078 160.217 29.251 159.08 29.251 158.926 C 29.251 158.772 29.274 158.006 29.405 157.634 C 29.513 157.328 29.863 156.875 29.98 156.703 C 30.203 156.375 30.468 155.331 30.468 155.038 C 30.468 150.835 28.403 152.628 28.239 143.537 C 28.075 134.447 28.976 127.977 31.187 123.8 C 33.399 119.623 36.28 114.594 36.33 114.392 C 36.381 114.19 35.826 113.635 37.037 111.264 C 38.248 108.893 39.812 107.934 39.661 103.393 C 39.56 100.365 39.56 97.569 39.661 95.003 C 36.97 90.918 35.859 86.47 36.33 81.658 C 33.338 93.492 30.812 98.488 28.599 98.656 C 27.549 98.656 28.265 95.837 27.429 93.929 C 26.593 92.02 25.956 91.534 24.814 90.403 C 21.745 87.363 19.849 83.667 19.825 77.797 C 19.87 76.286 26.545 70.14 39.661 63.689 C 42.128 62.411 43.225 63.833 46.485 63.003 C 49.052 62.349 52.31 60.373 56.573 60.464 C 62.813 60.745 66.847 63.53 71.056 67.179 C 72.603 69.156 74.261 69.34 75.896 69.774 C 77.531 70.209 83.558 77.036 91.817 87.799 C 93.036 89.413 93.164 90.885 92.201 92.216 C 95.504 91.398 122.587 83.797 140.698 106.519 C 144.489 102.695 156.873 86.832 179.277 90.974 C 201.681 95.117 209.931 105.466 216.234 124.874 C 218.172 124.29 222.388 122.817 224.664 119.739 C 226.939 116.66 229.215 110.972 233.565 110.035 C 234.97 105.685 236.576 101.201 238.651 100.331 C 238.182 98.123 233.856 79.943 238.989 77.283 C 244.123 74.624 249.07 86.437 250.307 88.23 C 253.944 88.11 255.46 88.574 256.243 89.156 C 260.442 89.567 260.895 89.195 262.279 89.101 C 270.318 81.092 275.439 77.324 277.642 77.797 C 280.945 78.507 278.045 96.158 276.487 98.696 C 275.708 99.966 276.995 100.323 278.18 102.06 C 279.363 103.795 280.231 106.889 279.736 110.035 C 278.746 116.331 277.676 121.785 269.977 128.986 C 268.936 133.584 267.374 131.936 267.461 136.968 C 267.537 141.39 269.447 144.646 259.347 160.772 C 258.067 163.13 256.243 165.85 255.621 169.161 C 255.621 172.004 254.097 196.744 256.243 198.858 C 258.389 200.972 262.279 202.345 262.279 205.813 C 262.279 209.281 260.111 208.73 259.09 209.281 C 259.09 210.726 259.601 214.786 252.199 214.786 C 244.798 214.786 241.629 211.418 240.14 207.212 C 237.715 207.212 234.971 207.089 235.482 208.812 C 235.992 210.535 237.52 217.688 224.664 216.237 C 216.093 215.269 209.491 213.91 204.859 212.158 C 201.827 214.556 198.07 214.909 193.589 213.219 C 186.867 210.683 180.843 205.568 157.978 207.789 C 152.659 211.986 149.142 215.411 147.426 218.064 C 151.307 220.927 157.05 222.77 164.655 223.594 C 169.014 224.272 169.984 226.441 167.563 230.102 C 167.255 231.209 165.656 231.671 162.765 231.486 Z M 178.166 188.091 C 175.236 191.051 172.333 193.944 170.681 195.337 C 179.245 194.484 185.557 195.722 189.345 196.545 C 187.625 193.667 186.436 188.287 185.777 180.406 C 184.878 181.395 181.429 184.795 178.166 188.091 Z M 73.677 87.799 L 69.659 98.696 L 69.805 102.937 L 68.782 104.325 C 68.831 107.15 69.342 108.879 70.316 109.513 C 71.997 107.321 73.364 105.105 75.896 102.718 C 74.846 100.331 74.554 99.85 74.992 95.412 C 74.735 94.164 74.418 93.742 74.334 92.216 C 74.992 89.156 74.404 88.083 73.677 87.799 Z M 62.482 209.968 C 62.754 211.034 63.299 212.158 63.814 212.158 C 64.329 212.158 65.207 210.773 64.601 209.281 C 63.814 208.777 63.814 209.281 63.367 208.812 C 62.595 208.872 62.3 209.257 62.482 209.968 Z M 40.621 211.034 C 45.56 211.62 47.276 210.658 48.658 208.812 C 50.039 206.966 49.495 204.63 45.435 202.537 C 41.374 200.444 43.76 200.05 42.128 198.858 C 41.04 198.063 40.537 198.768 40.621 200.972 Z" stroke-width="0.6" stroke-linecap="round" stroke-linejoin="round"/><path d="M 140.698 220.586 C 147.103 215.043 158.872 201.331 178.166 184.036 C 195.28 168.549 204.492 159.19 209.182 150.835 C 213.937 142.363 213.887 135.549 213.929 132.453 C 214.203 115.786 201.337 96.771 179.277 93.312 C 164.57 91.006 151.711 96.792 140.698 110.669 C 130.678 98.197 117.102 92.318 105.12 92.854 C 93.137 93.39 68.451 101.448 65.82 132.453 C 65.238 149.526 81.75 164.402 99.419 180.966 C 114.102 194.732 129.806 209.726 140.698 220.586 Z" fill="#fff" stroke-width="0.6"/><text transform="matrix(1.318999, 0, 0, 1.096784, 85.057228, 150.709503)" style="font-family: Roboto; font-size: 22px; font-weight: 700; stroke-width: 0px; white-space: pre;" y="0">
ADAPV
</text></g></svg>